<svg width="50" height="50" viewBox="0 0 189 203" fill="black" xmlns="http://www.w3.org/2000/svg">
<path d="M67.1067 57.403C69.166 61.5794 70.4528 65.8555 70.9672 70.2312C71.4815 74.607 70.8774 78.9068 69.1548 83.1308C67.4323 87.3549 64.4491 90.5131 60.2053 92.6056C54.918 95.2126 49.1309 95.5783 42.8441 93.7026C36.5573 91.827 31.0318 88.6891 26.2677 84.2888C21.5035 79.8885 17.8687 75.1477 15.3633 70.0664C13.304 65.89 12.0172 61.6139 11.5029 57.2382C10.9885 52.8625 11.5926 48.5626 13.3152 44.3386C15.0378 40.1146 18.0209 36.9564 22.2647 34.8639C27.6216 32.2226 33.4261 31.8483 39.6781 33.7411C45.9301 35.6338 51.4296 38.763 56.1766 43.1284C60.9236 47.4939 64.567 52.2521 67.1067 57.403ZM56.2829 125.431C59.0286 130.999 59.9529 136.557 59.0559 142.105C58.1589 147.652 55.0319 151.747 49.675 154.388C44.3877 156.995 38.5132 157.49 32.0516 155.874C25.5899 154.258 19.8031 151.335 14.6911 147.106C9.57906 142.878 5.75318 138.188 3.21342 133.037C0.467737 127.468 -0.465185 121.893 0.414656 116.311C1.2945 110.728 4.41287 106.616 9.76977 103.975C15.0571 101.368 20.9316 100.873 27.3933 102.489C33.8549 104.105 39.6503 107.045 44.7795 111.309C49.9087 115.573 53.7431 120.28 56.2829 125.431ZM96.0088 102.339C104.218 98.2909 114.761 97.3106 127.639 99.3978C140.516 101.485 152.549 105.806 163.737 112.36C174.926 118.914 182.493 126.194 186.44 134.199C188.019 137.401 188.74 140.355 188.604 143.061C188.469 145.767 187.554 148.165 185.86 150.255C184.166 152.345 182.266 154.147 180.159 155.662C178.052 157.177 175.502 158.672 172.511 160.147C167.78 162.479 160.486 164.129 150.627 165.096C140.769 166.063 133.649 167.627 129.266 169.788C124.674 172.052 118.742 176.902 111.468 184.339C104.195 191.776 97.9844 196.764 92.8362 199.302C80.1049 205.579 71.2338 203.637 66.2229 193.474C63.2713 187.488 61.933 179.863 62.2081 170.598C62.4831 161.334 64.0322 152.241 66.8554 143.321C69.6786 134.401 73.6953 126.104 78.9057 118.43C84.116 110.755 89.8171 105.392 96.0088 102.339ZM110.087 68.0104C105.843 70.1029 101.522 70.5464 97.122 69.3411C92.7224 68.1357 88.9436 65.997 85.7856 62.9247C82.6276 59.8525 80.0189 56.2282 77.9597 52.0518C75.4199 46.9008 73.8637 41.1136 73.2909 34.6899C72.7181 28.2663 73.5843 21.9985 75.8894 15.8864C78.1945 9.7744 82.0255 5.39772 87.3824 2.7564C91.6261 0.66392 95.9478 0.220359 100.347 1.42571C104.747 2.63106 108.526 4.76984 111.684 7.84207C114.842 10.9143 117.451 14.5386 119.51 18.715C122.015 23.7964 123.563 29.5662 124.153 36.0247C124.743 42.4831 123.868 48.7769 121.528 54.9061C119.188 61.0353 115.374 65.4034 110.087 68.0104ZM149.814 34.9235C155.171 32.2821 160.332 32.3119 165.296 35.0128C170.26 37.7137 174.115 41.8485 176.86 47.417C179.4 52.5679 180.791 58.4584 181.033 65.0883C181.275 71.7183 180.07 78.0883 177.418 84.1983C174.766 90.3083 170.797 94.6668 165.509 97.2739C160.152 99.9152 155.001 99.9028 150.054 97.2367C145.107 94.5706 141.26 90.4533 138.515 84.8847C135.975 79.7338 134.576 73.826 134.316 67.1612C134.057 60.4964 135.253 54.1091 137.905 47.999C140.557 41.889 144.527 37.5305 149.814 34.9235Z" fill="#a6a6a6"/>
</svg>
